# xmcd
#
# Track frame offsets:
#	150
#	18776
#	34916
#	54283
#	71181
#	89226
#	107931
#	127229
#	147260
#	167871
#	186981
#	207214
#	221938
#	240059
#	258405
#
# Disc length: 3787 seconds
#
# Revision: 0
# Processed by: cddbd v1.5.2PL0 Copyright (c) Steve Scherf et al.
# Submitted via: audiograbber 1.83.01
#
DISCID=e70ec90f
DTITLE=Sound Choice - Country Hits - Vol. 155 SC8779
DYEAR=1900
DGENRE=Karaoke
TTITLE0=Rodney Foster - Everyday Angel
TTITLE1=Toby Keith and Willie Nelson - Beer For My Horses
TTITLE2=Michael Peterson - Modern Man
TTITLE3=Nickel Creek - This Side
TTITLE4=Dusty Drake - And Then
TTITLE5=Shannon Lawson - Dream Your Way To Me
TTITLE6=Steve Azar - Waitin' On Joe
TTITLE7=Kellie Coffey - At The End Of The Day
TTITLE8=John Michael Montgomery - Til Nothing Comes Between Us
TTITLE9=Charlie Daniels - The Last Fallen Hero
TTITLE10=Toby Keith - Who's Your Daddy
TTITLE11=Rodney Atkins - Sing Along
TTITLE12=George Strait - Stars On The Water
TTITLE13=Dolly Parton - Dagger Through The Heart
TTITLE14=Brad Paisley - I Wish You'd Stay
EXTD=
EXTT0=
EXTT1=
EXTT2=
EXTT3=
EXTT4=
EXTT5=
EXTT6=
EXTT7=
EXTT8=
EXTT9=
EXTT10=
EXTT11=
EXTT12=
EXTT13=
EXTT14=
PLAYORDER=
